<svg width="24" height="24" viewBox="0 0 24 24" fill="none" xmlns="http://www.w3.org/2000/svg">
<path fill-rule="evenodd" clip-rule="evenodd" d="M21 16.041V7.95896C21 7.24396 20.619 6.58396 20 6.22696L13 2.18596C12.381 1.82896 11.619 1.82896 11 2.18596L4 6.22596C3.381 6.58396 3 7.24396 3 7.95896V16.042C3 16.757 3.381 17.417 4 17.774L11 21.815C11.619 22.172 12.381 22.172 13 21.815L20 17.774C20.619 17.416 21 16.756 21 16.041Z" stroke="#676F71" stroke-width="1.5" stroke-linecap="round" stroke-linejoin="round"/>
<path d="M12 22.08V12" stroke="#676F71" stroke-width="1.5" stroke-linecap="round" stroke-linejoin="round"/>
<path d="M12 12L20.73 6.95996" stroke="#676F71" stroke-width="1.5" stroke-linecap="round" stroke-linejoin="round"/>
<path d="M3.27002 6.95996L12 12" stroke="#676F71" stroke-width="1.5" stroke-linecap="round" stroke-linejoin="round"/>
</svg>
